<?xml version="1.0" encoding="utf-8"?>
<!-- Generator: Adobe Illustrator 18.0.0, SVG Export Plug-In . SVG Version: 6.00 Build 0)  -->
<!DOCTYPE svg PUBLIC "-//W3C//DTD SVG 1.1//EN" "http://www.w3.org/Graphics/SVG/1.1/DTD/svg11.dtd">
<svg version="1.1" id="Layer_1" xmlns="http://www.w3.org/2000/svg" xmlns:xlink="http://www.w3.org/1999/xlink" x="0px" y="0px"
	 viewBox="0 0 61.3 56.6" enable-background="new 0 0 61.3 56.6" xml:space="preserve">
<g>
	<path fill="#7F7F7F" d="M26.7,41.6c-0.3,0.4-0.5,0.8-0.7,1.2c0,0.7,0.1,1.3,0.3,1.9c0.1,0.4,0.3,0.7,0.6,1.1
		c0.6,0.8,1.4,1.2,2.5,1.2c0.1,0,0.1,0,0.2,0c0.1,0,0.3,0,0.4,0c-1.1-0.1-1.8-0.5-2.4-1.2c-0.2-0.3-0.4-0.7-0.6-1.1
		c-0.4-1.1-0.4-2.2-0.3-3.4C26.8,41.5,26.7,41.5,26.7,41.6z"/>
	<path fill="#7F7F7F" d="M32.3,27.6c1.5,2.1,3.1,4.3,4.3,6.5c0.1,0.2,0.2,0.3,0.3,0.5c0.2-0.2,0.3-0.4,0.5-0.6
		c-1.2-2.2-2.8-4.3-4.2-6.4c-1.4-2-2.7-4-3.5-6.2c0.6-0.2,1.2-0.4,1.9-0.5c-0.1,0-0.3,0-0.4-0.1c-0.8,0.1-1.6,0.3-2.3,0.6
		C29.7,23.5,30.9,25.6,32.3,27.6z"/>
	<path fill="#7F7F7F" d="M34.5,8.6c2,0.3,4.9,2.2,4.7,5c-0.1,0.9-0.4,1.8-0.8,2.6c0,0,0,0.1,0,0.1c0,0.4-0.1,0.8-0.1,1.2
		c0.1,0,0.1-0.1,0.1-0.1c0.9-1.2,1.5-2.4,1.6-3.8c0.2-2.8-2.6-4.7-4.7-5c-1-0.1-2.1-0.2-3.1-0.2c-0.1,0-0.3,0-0.4,0
		C32.7,8.4,33.6,8.5,34.5,8.6z"/>
	<path fill="#7F7F7F" d="M44.5,29.4c0-6.6-5.2-11.9-11.7-11.9c-0.1,0-0.3,0-0.4,0c6.3,0.2,11.3,5.4,11.3,11.8c0,3.9-1.9,7.3-4.8,9.4
		c0.2,0.6,0.4,1.3,0.6,1.9c0.4,1.6,0.5,3.1,0,4.7c-0.7,2.6-2.7,4.1-5.9,4.6c-0.7,0.1-1.3,0.2-2,0.2c0.9,0,1.9-0.1,2.8-0.2
		c3.1-0.5,5.1-2,5.9-4.6c0.4-1.6,0.3-3.1,0-4.7c-0.1-0.7-0.3-1.3-0.6-1.9C42.5,36.7,44.5,33.3,44.5,29.4z"/>
	<path fill="#7F7F7F" d="M30.1,11.7c-1.5,0.4-2.1,1.3-2.4,2.5c-0.3,1.2-0.2,2.5,0,3.7c0.3-0.1,0.5-0.1,0.8-0.1
		c-0.2-1.2-0.3-2.3,0-3.5c0.3-1.2,0.9-2.2,2.4-2.5c0.2,0,0.3,0,0.5-0.1c-0.3,0-0.5,0-0.7,0C30.5,11.6,30.3,11.7,30.1,11.7z"/>
	<path fill="#7F7F7F" d="M24.6,25c-0.8,1.3-1.2,2.7-1.2,4.3c0,4.4,3.4,8,7.6,8.5c0.2,0,0.3,0,0.5-0.1c-4.1-0.6-7.3-4.2-7.3-8.5
		c0-1.3,0.3-2.5,0.8-3.6C24.9,25.5,24.7,25.2,24.6,25z"/>
	<path fill="#7F7F7F" d="M33.7,41C33.7,41,33.7,40.9,33.7,41c-0.5,0-1,0-1.4,0c0.1,0,0.1,0,0.2,0C32.9,41.1,33.3,41,33.7,41z"/>
</g>
<path fill="#7F7F7F" d="M42.4,29.4c0-6.6-5.2-11.9-11.7-11.9c-1.5,0-2.9,0.3-4.2,0.8c-0.3-1.4-0.4-2.8-0.1-4.1
	c0.3-1.2,0.9-2.2,2.4-2.5c0.6-0.1,1.2-0.2,1.7-0.1c0.8,0.1,1.3,0,2.5,0.1c1.1,0.1,2.3,1,2.8,2c0.4,0.8,0.5,1.7,0.4,2.6
	c0,0.4-0.1,0.8-0.1,1.2c0.1,0,0.1-0.1,0.1-0.1c0.9-1.2,1.5-2.4,1.6-3.8c0.2-2.8-2.6-4.7-4.7-5c-1-0.1-2.1-0.2-3.1-0.2
	c-3,0-5.3,1-6.7,3.3c-1.1,1.8-1.2,3.8-1,5.8c0.1,1,0.4,2,0.7,2.9c-2.5,2.1-4.2,5.3-4.2,8.9c0,6.7,5.4,11.7,11.5,11.8
	c1.3,0,2.5-0.2,3.7-0.5c0.4,1.3,0.6,2.6,0.4,3.9c-0.2,1.8-3.1,2.6-4.7,2.6s-0.4,0.1-1.6,0c-1.2-0.1-2-0.5-2.5-1.2
	c-0.2-0.3-0.4-0.7-0.6-1.1c-0.4-1.1-0.4-2.2-0.3-3.4c-0.1,0.1-0.2,0.2-0.2,0.2c-0.6,0.9-1,1.8-1.2,2.7c-0.6,2.9,1.3,5.1,4.4,5.7
	c1.5,0.3,3,0.2,4.5,0c3.1-0.5,5.1-2,5.9-4.6c0.4-1.6,0.3-3.1,0-4.7c-0.1-0.7-0.3-1.3-0.6-1.9C40.5,36.7,42.4,33.3,42.4,29.4z
	 M22.1,29.3c0-2.2,0.9-4.2,2.2-5.7c0.2,0.3,0.3,0.6,0.5,1c1.2,2.4,2.8,4.6,4.4,6.8c1.4,2,2.7,4.1,3.7,6.2c-0.8,0.2-1.6,0.3-2.4,0.3
	C25.9,37.8,22.1,34,22.1,29.3z M35.4,34.1c-1.3-2.3-2.8-4.4-4.3-6.5c-1.4-2-2.7-4-3.5-6.2c1-0.4,2-0.6,3.2-0.6
	c4.7,0,8.6,3.8,8.6,8.6c0,2.6-1.2,4.9-3,6.4C36,35.2,35.7,34.7,35.4,34.1z"/>
</svg>
